<svg width="128" height="128" viewBox="0 0 128 128" fill="none" xmlns="http://www.w3.org/2000/svg">
<path fill-rule="evenodd" clip-rule="evenodd" d="M119 63.3109C119 56.5242 107.746 51.0224 93.8624 51.0224C79.9793 51.0224 68.7248 56.5242 68.7248 63.3109C68.7248 70.0976 79.9793 75.5993 93.8624 75.5993C107.746 75.5993 119 70.0976 119 63.3109ZM115.561 60.7769C115.561 55.5358 105.846 51.2871 93.8624 51.2871C81.8784 51.2871 72.1634 55.5358 72.1634 60.7769C72.1634 66.0179 81.8784 70.2666 93.8624 70.2666C105.846 70.2666 115.561 66.0179 115.561 60.7769Z" fill="black"/>
<path fill-rule="evenodd" clip-rule="evenodd" d="M9 63.3109C9 70.0976 20.2545 75.5993 34.1376 75.5993C48.0207 75.5993 59.2752 70.0976 59.2752 63.3109C59.2752 56.5242 48.0207 51.0224 34.1376 51.0224C20.2545 51.0224 9 56.5242 9 63.3109ZM12.4386 65.8449C12.4386 71.0859 22.1536 75.3346 34.1376 75.3346C46.1216 75.3346 55.8366 71.0859 55.8366 65.8449C55.8366 60.6039 46.1216 56.3552 34.1376 56.3552C22.1536 56.3552 12.4386 60.6039 12.4386 65.8449Z" fill="black"/>
<path fill-rule="evenodd" clip-rule="evenodd" d="M111.055 35.1813C107.619 29.3038 95.0862 30.0959 83.063 36.9505C71.0399 43.8051 64.079 54.1265 67.5154 60.0039C70.9518 65.8814 83.4843 65.0893 95.5074 58.2347C107.531 51.3801 114.491 41.0588 111.055 35.1813ZM106.794 34.6845C104.14 30.1457 93.5755 31.2628 83.1971 37.1797C72.8186 43.0967 66.5565 51.5728 69.2103 56.1116C71.864 60.6505 82.4287 59.5334 92.8072 53.6164C103.186 47.6995 109.448 39.2234 106.794 34.6845Z" fill="black"/>
<path fill-rule="evenodd" clip-rule="evenodd" d="M91.4599 16.4355C85.5078 13.0422 75.0555 19.9159 68.1139 31.7884C61.1724 43.6608 60.3702 56.0363 66.3223 59.4296C72.2743 62.823 82.7266 55.9493 89.6682 44.0768C96.6098 32.2043 97.4119 19.8289 91.4599 16.4355ZM87.5182 18.1091C82.9217 15.4886 74.3381 21.6723 68.3461 31.9207C62.354 42.1691 61.2227 52.6015 65.8192 55.222C70.4157 57.8425 78.9993 51.6589 84.9913 41.4104C90.9833 31.162 92.1147 20.7297 87.5182 18.1091Z" fill="black"/>
<path fill-rule="evenodd" clip-rule="evenodd" d="M37.1952 16.4355C31.2431 19.8289 32.0453 32.2043 38.9868 44.0768C45.9284 55.9493 56.3807 62.823 62.3328 59.4296C68.2848 56.0363 67.4827 43.6608 60.5411 31.7884C53.5995 19.9159 43.1472 13.0422 37.1952 16.4355ZM36.6921 20.6432C32.0956 23.2637 33.2269 33.696 39.219 43.9445C45.211 54.1929 53.7946 60.3765 58.3911 57.756C62.9876 55.1355 61.8562 44.7032 55.8642 34.4547C49.8722 24.2063 41.2886 18.0226 36.6921 20.6432Z" fill="black"/>
<path fill-rule="evenodd" clip-rule="evenodd" d="M18.2277 36.8419C14.7913 42.7194 21.7522 53.0407 33.7753 59.8953C45.7985 66.7499 58.3309 67.542 61.7673 61.6646C65.2037 55.7871 58.2428 45.4657 46.2197 38.6111C34.1965 31.7565 21.6641 30.9644 18.2277 36.8419ZM19.9225 40.7342C17.2688 45.2731 23.5309 53.7492 33.9093 59.6661C44.2878 65.583 54.8525 66.7002 57.5063 62.1613C60.1601 57.6224 53.898 49.1463 43.5195 43.2294C33.141 37.3125 22.5763 36.1953 19.9225 40.7342Z" fill="black"/>
<path fill-rule="evenodd" clip-rule="evenodd" d="M64 9C57.1272 9 51.5556 20.1135 51.5556 33.8227C51.5556 47.5318 57.1272 58.6453 64 58.6453C70.8728 58.6453 76.4444 47.5318 76.4444 33.8227C76.4444 20.1135 70.8728 9 64 9ZM61.4338 12.3955C56.1263 12.3955 51.8237 21.9888 51.8237 33.8227C51.8237 45.6565 56.1263 55.2498 61.4338 55.2498C66.7414 55.2498 71.044 45.6565 71.044 33.8227C71.044 21.9888 66.7414 12.3955 61.4338 12.3955Z" fill="black"/>
<path fill-rule="evenodd" clip-rule="evenodd" d="M68.3724 69.2874C71.8088 63.4099 84.3412 64.202 96.3643 71.0566C108.387 77.9112 115.348 88.2326 111.912 94.1101C108.476 99.9875 95.9431 99.1954 83.92 92.3408C71.8968 85.4862 64.9359 75.1649 68.3724 69.2874ZM72.6334 68.7906C75.2871 64.2518 85.8519 65.3689 96.2303 71.2858C106.609 77.2028 112.871 85.6789 110.217 90.2178C107.563 94.7566 96.9986 93.6395 86.6202 87.7226C76.2417 81.8056 69.9796 73.3295 72.6334 68.7906Z" fill="black"/>
<path fill-rule="evenodd" clip-rule="evenodd" d="M66.3223 69.8617C72.2743 66.4683 82.7267 73.342 89.6682 85.2145C96.6098 97.087 97.4119 109.462 91.4599 112.856C85.5078 116.249 75.0555 109.375 68.114 97.503C61.1724 85.6305 60.3702 73.255 66.3223 69.8617ZM70.264 71.5353C74.8604 68.9148 83.4441 75.0984 89.4361 85.3469C95.4281 95.5953 96.5594 106.028 91.963 108.648C87.3665 111.269 78.7828 105.085 72.7908 94.8366C66.7988 84.5882 65.6675 74.1558 70.264 71.5353Z" fill="black"/>
<path fill-rule="evenodd" clip-rule="evenodd" d="M62.5009 68.6993C68.453 72.0926 67.6508 84.4681 60.7092 96.3405C53.7677 108.213 43.3154 115.087 37.3633 111.693C31.4113 108.3 32.2134 95.9246 39.155 84.0521C46.0965 72.1796 56.5489 65.3059 62.5009 68.6993ZM63.004 72.9069C67.6004 75.5274 66.4691 85.9598 60.4771 96.2082C54.4851 106.457 45.9014 112.64 41.305 110.02C36.7085 107.399 37.8398 96.9669 43.8318 86.7185C49.8239 76.47 58.4075 70.2864 63.004 72.9069Z" fill="black"/>
<path fill-rule="evenodd" clip-rule="evenodd" d="M62.5026 67.5182C65.939 73.3956 58.9781 83.717 46.955 90.5716C34.9318 97.4262 22.3994 98.2183 18.963 92.3408C15.5265 86.4633 22.4875 76.142 34.5106 69.2874C46.5337 62.4328 59.0662 61.6407 62.5026 67.5182ZM60.8077 71.4105C63.4615 75.9493 57.1994 84.4254 46.8209 90.3424C36.4425 96.2593 25.8777 97.3765 23.224 92.8376C20.5702 88.2987 26.8323 79.8226 37.2108 73.9057C47.5892 67.9887 58.154 66.8716 60.8077 71.4105Z" fill="black"/>
<path fill-rule="evenodd" clip-rule="evenodd" d="M64.8408 69.3547C71.7137 69.3547 77.2852 80.4682 77.2852 94.1774C77.2852 107.887 71.7137 119 64.8408 119C57.968 119 52.3965 107.887 52.3965 94.1774C52.3965 80.4682 57.968 69.3547 64.8408 69.3547ZM67.407 72.7502C72.7145 72.7502 77.0172 82.3435 77.0172 94.1774C77.0172 106.011 72.7145 115.604 67.407 115.604C62.0995 115.604 57.7969 106.011 57.7969 94.1774C57.7969 82.3435 62.0995 72.7502 67.407 72.7502Z" fill="black"/>
<path fill-rule="evenodd" clip-rule="evenodd" d="M64 61.3023C62.8766 61.3023 61.9659 62.2015 61.9659 63.3109C61.9659 64.4202 62.8766 65.3195 64 65.3195C65.1234 65.3195 66.0341 64.4202 66.0341 63.3109C66.0341 62.2015 65.1234 61.3023 64 61.3023ZM56.5846 63.3109C56.5846 59.2668 59.9046 55.9883 64 55.9883C68.0954 55.9883 71.4154 59.2668 71.4154 63.3109C71.4154 67.355 68.0954 70.6334 64 70.6334C59.9046 70.6334 56.5846 67.355 56.5846 63.3109Z" fill="black"/>
</svg>
