<svg width="128" height="128" viewBox="0 0 128 128" fill="none" xmlns="http://www.w3.org/2000/svg">
<g clip-path="url(#clip0_2469_1254)">
<path d="M0 37C0 16.5655 16.5655 0 37 0H91C111.435 0 128 16.5655 128 37V91C128 111.435 111.435 128 91 128H37C16.5655 128 0 111.435 0 91V37Z" fill="#23262A"/>
<path fill-rule="evenodd" clip-rule="evenodd" d="M112 63.3986C112 57.4756 102.178 52.6741 90.0617 52.6741C77.9455 52.6741 68.1234 57.4756 68.1234 63.3986C68.1234 69.3215 77.9455 74.123 90.0617 74.123C102.178 74.123 112 69.3215 112 63.3986ZM108.999 61.1871C108.999 56.6131 100.521 52.9051 90.0617 52.9051C79.6029 52.9051 71.1244 56.6131 71.1244 61.1871C71.1244 65.7611 79.6029 69.469 90.0617 69.469C100.521 69.469 108.999 65.7611 108.999 61.1871Z" fill="white"/>
<path fill-rule="evenodd" clip-rule="evenodd" d="M16 63.3986C16 69.3215 25.8221 74.123 37.9383 74.123C50.0545 74.123 59.8766 69.3215 59.8766 63.3986C59.8766 57.4756 50.0545 52.6741 37.9383 52.6741C25.8221 52.6741 16 57.4756 16 63.3986ZM19.001 65.6101C19.001 70.1841 27.4795 73.892 37.9383 73.892C48.3971 73.892 56.8756 70.1841 56.8756 65.6101C56.8756 61.0361 48.3971 57.3281 37.9383 57.3281C27.4795 57.3281 19.001 61.0361 19.001 65.6101Z" fill="white"/>
<path fill-rule="evenodd" clip-rule="evenodd" d="M105.066 38.8491C102.067 33.7197 91.1298 34.411 80.6368 40.3932C70.1439 46.3754 64.0689 55.3831 67.068 60.5125C70.0671 65.642 81.0045 64.9507 91.4974 58.9685C101.99 52.9863 108.065 43.9785 105.066 38.8491ZM101.348 38.4156C99.0315 34.4544 89.8114 35.4293 80.7538 40.5932C71.6962 45.7571 66.2311 53.1544 68.5471 57.1156C70.8631 61.0768 80.0833 60.1019 89.1408 54.938C98.1984 49.7741 103.664 42.3768 101.348 38.4156Z" fill="white"/>
<path fill-rule="evenodd" clip-rule="evenodd" d="M87.965 22.4892C82.7705 19.5277 73.6484 25.5266 67.5903 35.888C61.5323 46.2495 60.8322 57.0498 66.0267 60.0113C71.2212 62.9728 80.3433 56.9739 86.4013 46.6125C92.4594 36.251 93.1595 25.4507 87.965 22.4892ZM84.525 23.9498C80.5135 21.6628 73.0223 27.0594 67.7929 36.0035C62.5635 44.9476 61.5762 54.0522 65.5877 56.3392C69.5991 58.6262 77.0903 53.2296 82.3197 44.2855C87.5491 35.3414 88.5364 26.2368 84.525 23.9498Z" fill="white"/>
<path fill-rule="evenodd" clip-rule="evenodd" d="M40.6067 22.4892C35.4122 25.4507 36.1122 36.251 42.1703 46.6125C48.2284 56.9739 57.3504 62.9728 62.545 60.0113C67.7395 57.0498 67.0394 46.2495 60.9813 35.888C54.9232 25.5266 45.8012 19.5277 40.6067 22.4892ZM40.1676 26.1613C36.1562 28.4483 37.1435 37.5529 42.3729 46.497C47.6023 55.4411 55.0935 60.8377 59.105 58.5507C63.1164 56.2637 62.1291 47.1591 56.8997 38.215C51.6703 29.2709 44.1791 23.8743 40.1676 26.1613Z" fill="white"/>
<path fill-rule="evenodd" clip-rule="evenodd" d="M24.0533 40.2984C21.0542 45.4278 27.1292 54.4356 37.6221 60.4177C48.115 66.3999 59.0524 67.0912 62.0515 61.9618C65.0505 56.8324 58.9756 47.8246 48.4826 41.8424C37.9897 35.8603 27.0523 35.169 24.0533 40.2984ZM25.5324 43.6953C23.2164 47.6565 28.6815 55.0538 37.7391 60.2177C46.7966 65.3816 56.0168 66.3565 58.3328 62.3953C60.6488 58.4341 55.1837 51.0368 46.1261 45.8729C37.0685 40.7091 27.8484 39.7341 25.5324 43.6953Z" fill="white"/>
<path fill-rule="evenodd" clip-rule="evenodd" d="M64 16C58.0019 16 53.1395 25.699 53.1395 37.6634C53.1395 49.6278 58.0019 59.3268 64 59.3268C69.9981 59.3268 74.8605 49.6278 74.8605 37.6634C74.8605 25.699 69.9981 16 64 16ZM61.7604 18.9634C57.1284 18.9634 53.3734 27.3357 53.3734 37.6634C53.3734 47.9911 57.1284 56.3634 61.7604 56.3634C66.3925 56.3634 70.1475 47.9911 70.1475 37.6634C70.1475 27.3357 66.3925 18.9634 61.7604 18.9634Z" fill="white"/>
<path fill-rule="evenodd" clip-rule="evenodd" d="M67.8159 68.6145C70.8149 63.485 81.7523 64.1763 92.2452 70.1585C102.738 76.1407 108.813 85.1484 105.814 90.2779C102.815 95.4073 91.8776 94.716 81.3847 88.7338C70.8918 82.7516 64.8168 73.7439 67.8159 68.6145ZM71.5346 68.1809C73.8506 64.2197 83.0707 65.1947 92.1283 70.3586C101.186 75.5224 106.651 82.9198 104.335 86.881C102.019 90.8422 92.7988 89.8672 83.7412 84.7033C74.6837 79.5395 69.2186 72.1421 71.5346 68.1809Z" fill="white"/>
<path fill-rule="evenodd" clip-rule="evenodd" d="M66.0267 69.1157C71.2212 66.1542 80.3433 72.153 86.4014 82.5145C92.4594 92.8759 93.1595 103.676 87.965 106.638C82.7705 109.599 73.6484 103.6 67.5904 93.2389C61.5323 82.8775 60.8322 72.0771 66.0267 69.1157ZM69.4667 70.5763C73.4782 68.2893 80.9694 73.6859 86.1988 82.63C91.4282 91.5741 92.4155 100.679 88.404 102.966C84.3926 105.253 76.9014 99.856 71.672 90.9119C66.4426 81.9678 65.4553 72.8633 69.4667 70.5763Z" fill="white"/>
<path fill-rule="evenodd" clip-rule="evenodd" d="M62.6917 68.1012C67.8862 71.0627 67.1862 81.863 61.1281 92.2245C55.07 102.586 45.9479 108.585 40.7534 105.623C35.5589 102.662 36.259 91.8615 42.3171 81.5C48.3752 71.1386 57.4972 65.1397 62.6917 68.1012ZM63.1307 71.7733C67.1422 74.0603 66.1549 83.1649 60.9255 92.109C55.6961 101.053 48.2049 106.45 44.1934 104.163C40.182 101.876 41.1693 92.7711 46.3987 83.827C51.6281 74.8829 59.1193 69.4863 63.1307 71.7733Z" fill="white"/>
<path fill-rule="evenodd" clip-rule="evenodd" d="M62.6932 67.0704C65.6922 72.1998 59.6172 81.2076 49.1243 87.1898C38.6314 93.1719 27.694 93.8632 24.6949 88.7338C21.6959 83.6044 27.7709 74.5966 38.2638 68.6145C48.7567 62.6323 59.6941 61.941 62.6932 67.0704ZM61.214 70.4673C63.53 74.4285 58.0649 81.8258 49.0074 86.9897C39.9498 92.1536 30.7297 93.1285 28.4136 89.1673C26.0976 85.2061 31.5627 77.8088 40.6203 72.6449C49.6779 67.4811 58.898 66.5061 61.214 70.4673Z" fill="white"/>
<path fill-rule="evenodd" clip-rule="evenodd" d="M64.7338 68.6732C70.7319 68.6732 75.5944 78.3722 75.5944 90.3366C75.5944 102.301 70.7319 112 64.7338 112C58.7357 112 53.8733 102.301 53.8733 90.3366C53.8733 78.3722 58.7357 68.6732 64.7338 68.6732ZM66.9734 71.6366C71.6054 71.6366 75.3604 80.0089 75.3604 90.3366C75.3604 100.664 71.6054 109.037 66.9734 109.037C62.3414 109.037 58.5863 100.664 58.5863 90.3366C58.5863 80.0089 62.3414 71.6366 66.9734 71.6366Z" fill="white"/>
<path fill-rule="evenodd" clip-rule="evenodd" d="M64 61.6456C63.0196 61.6456 62.2248 62.4304 62.2248 63.3986C62.2248 64.3667 63.0196 65.1516 64 65.1516C64.9804 65.1516 65.7752 64.3667 65.7752 63.3986C65.7752 62.4304 64.9804 61.6456 64 61.6456ZM57.5283 63.3986C57.5283 59.8692 60.4258 57.008 64 57.008C67.5742 57.008 70.4717 59.8692 70.4717 63.3986C70.4717 66.928 67.5742 69.7892 64 69.7892C60.4258 69.7892 57.5283 66.928 57.5283 63.3986Z" fill="white"/>
</g>
<defs>
<clipPath id="clip0_2469_1254">
<rect width="128" height="128" fill="white"/>
</clipPath>
</defs>
</svg>
