<svg width="512" height="512" viewBox="0 0 512 512" fill="none" xmlns="http://www.w3.org/2000/svg">
<rect width="512" height="512" rx="90" fill="white"/>
<path d="M117.103 404C105.518 404 95.2781 401.724 86.3826 397.173C77.694 392.622 71.0741 386.209 66.5229 377.934C61.9717 369.866 60.0064 360.143 60.627 348.765L63.7301 301.598C64.3507 293.117 62.5923 286.703 58.4549 282.359C54.5243 278.015 47.8009 275.843 38.2848 275.843H1.35815V240.157H38.2848C47.8009 240.157 54.5243 237.985 58.4549 233.641C62.5923 229.296 64.3507 222.987 63.7301 214.712L60.627 165.994C60.0064 154.823 61.9717 145.203 66.5229 137.135C71.0741 129.067 77.694 122.861 86.3826 118.516C95.2781 114.172 105.518 112 117.103 112H138.514V147.685H122.689C115.241 147.685 109.345 149.444 105.001 152.961C100.864 156.478 99.0018 162.063 99.4155 169.717L102.519 218.125C103.346 230.331 99.7258 240.157 91.6578 247.605C83.5898 255.052 72.3153 258.776 57.8342 258.776V256.604C72.1084 256.604 83.2795 260.431 91.3475 268.085C99.6224 275.532 103.346 285.462 102.519 297.875L99.4155 346.283C99.2087 353.109 101.174 358.488 105.311 362.419C109.656 366.142 115.448 368.004 122.689 368.004H138.514V404H117.103Z" fill="black"/>
<path d="M256 372.659C241.312 372.659 228.589 369.866 217.832 364.281C207.075 358.695 198.696 350.834 192.697 340.697C186.905 330.56 184.008 318.665 184.008 305.012V207.575C184.008 193.921 186.905 182.026 192.697 171.889C198.696 161.753 207.075 153.892 217.832 148.306C228.589 142.721 241.312 139.928 256 139.928C270.895 139.928 283.617 142.721 294.168 148.306C304.925 153.892 313.2 161.753 318.993 171.889C324.992 182.026 327.991 193.921 327.991 207.575V305.012C327.991 318.665 324.992 330.56 318.993 340.697C313.2 350.834 304.925 358.695 294.168 364.281C283.411 369.866 270.688 372.659 256 372.659ZM256 339.146C266.757 339.146 275.342 336.043 281.756 329.836C288.169 323.63 291.375 315.355 291.375 305.012V207.575C291.375 197.231 288.169 188.956 281.756 182.75C275.342 176.544 266.757 173.441 256 173.441C245.243 173.441 236.657 176.544 230.244 182.75C223.831 188.956 220.625 197.231 220.625 207.575V305.012C220.625 315.355 223.831 323.63 230.244 329.836C236.657 336.043 245.243 339.146 256 339.146ZM256 276.463C250.001 276.463 245.036 274.498 241.105 270.567C237.381 266.637 235.52 261.569 235.52 255.362C235.52 249.156 237.381 244.191 241.105 240.468C244.829 236.744 249.794 234.882 256 234.882C262.206 234.882 267.171 236.744 270.895 240.468C274.618 244.191 276.48 249.156 276.48 255.362C276.48 261.569 274.618 266.637 270.895 270.567C267.171 274.498 262.206 276.463 256 276.463Z" fill="black"/>
<path d="M373.486 404V368.004H389.311C396.552 368.004 402.344 366.142 406.689 362.419C411.033 358.488 412.998 353.109 412.584 346.283L409.481 297.875C408.654 285.462 412.274 275.532 420.342 268.085C428.617 260.431 439.892 256.604 454.166 256.604V258.776C439.892 258.776 428.617 255.052 420.342 247.605C412.274 240.157 408.654 230.331 409.481 218.125L412.584 169.717C412.998 162.063 411.033 156.478 406.689 152.961C402.551 149.444 396.759 147.685 389.311 147.685H373.486V112H394.897C406.482 112 416.618 114.172 425.307 118.516C434.202 122.861 440.926 129.067 445.477 137.135C450.028 145.203 451.994 154.823 451.373 165.994L448.27 214.712C447.649 222.987 449.408 229.296 453.545 233.641C457.683 237.985 464.406 240.157 473.715 240.157H510.642V275.843H473.715C464.406 275.843 457.683 278.015 453.545 282.359C449.408 286.703 447.649 293.117 448.27 301.598L451.373 348.765C451.994 360.143 450.028 369.866 445.477 377.934C440.926 386.209 434.202 392.622 425.307 397.173C416.618 401.724 406.482 404 394.897 404H373.486Z" fill="black"/>
</svg>
